<mxfile host="app.diagrams.net" modified="2023-11-17T07:59:38.672Z" agent="Mozilla/5.0 (Macintosh; Intel Mac OS X 10_15_7) AppleWebKit/605.1.15 (KHTML, like Gecko) Version/17.0 Safari/605.1.15" etag="a7m7NCjBUWfoqdin2QGM" version="22.1.2" type="github">
  <diagram name="第 1 页" id="UWYZHB4jdS1wqhKVhCok">
    <mxGraphModel dx="1242" dy="756" grid="1" gridSize="10" guides="1" tooltips="1" connect="1" arrows="1" fold="1" page="1" pageScale="1" pageWidth="827" pageHeight="1169" math="0" shadow="0">
      <root>
        <mxCell id="0" />
        <mxCell id="1" parent="0" />
        <mxCell id="ZolsTQ2NhSKeROi4H5Do-49" value="Build" style="shape=step;perimeter=stepPerimeter;whiteSpace=wrap;html=1;fixedSize=1;size=30;fontSize=12;fillColor=#d80073;strokeColor=#A50040;fontColor=#ffffff;" vertex="1" parent="1">
          <mxGeometry x="134.32" y="940" width="150" height="80" as="geometry" />
        </mxCell>
        <mxCell id="ZolsTQ2NhSKeROi4H5Do-50" value="Test" style="shape=step;perimeter=stepPerimeter;whiteSpace=wrap;html=1;fixedSize=1;size=30;fontSize=12;fillColor=#d80073;strokeColor=#A50040;fontColor=#ffffff;" vertex="1" parent="1">
          <mxGeometry x="280" y="940" width="150" height="80" as="geometry" />
        </mxCell>
        <mxCell id="ZolsTQ2NhSKeROi4H5Do-51" value="Merge" style="shape=step;perimeter=stepPerimeter;whiteSpace=wrap;html=1;fixedSize=1;size=30;fontSize=12;fillColor=#d80073;strokeColor=#A50040;fontColor=#ffffff;" vertex="1" parent="1">
          <mxGeometry x="430" y="940" width="150" height="80" as="geometry" />
        </mxCell>
        <mxCell id="ZolsTQ2NhSKeROi4H5Do-52" value="AUTOMATICALLY&lt;br style=&quot;font-size: 12px;&quot;&gt;RELEASE TO&lt;br style=&quot;font-size: 12px;&quot;&gt;REPOSITORY" style="rounded=0;whiteSpace=wrap;html=1;fontSize=12;fillColor=#1ba1e2;strokeColor=#006EAF;fontColor=#ffffff;" vertex="1" parent="1">
          <mxGeometry x="599.9" y="940" width="190" height="80" as="geometry" />
        </mxCell>
        <mxCell id="ZolsTQ2NhSKeROi4H5Do-53" value="AUTOMATICALLY&lt;br style=&quot;font-size: 12px;&quot;&gt;DEPLOY TO&lt;br style=&quot;font-size: 12px;&quot;&gt;PRODUCTION" style="rounded=0;whiteSpace=wrap;html=1;fontSize=12;fillColor=#008a00;fontColor=#ffffff;strokeColor=#005700;" vertex="1" parent="1">
          <mxGeometry x="814.99" y="940" width="190" height="80" as="geometry" />
        </mxCell>
        <mxCell id="ZolsTQ2NhSKeROi4H5Do-54" value="CONTINUEOUS&lt;br style=&quot;font-size: 17px;&quot;&gt;INTEGRATION" style="text;html=1;strokeColor=none;fillColor=none;align=center;verticalAlign=middle;whiteSpace=wrap;rounded=0;fontStyle=1;fontSize=17;" vertex="1" parent="1">
          <mxGeometry x="267.5" y="870" width="148" height="50" as="geometry" />
        </mxCell>
        <mxCell id="ZolsTQ2NhSKeROi4H5Do-55" value="CONTINUEOUS&lt;br style=&quot;font-size: 17px;&quot;&gt;DELIVERY" style="text;html=1;strokeColor=none;fillColor=none;align=center;verticalAlign=middle;whiteSpace=wrap;rounded=0;fontStyle=1;fontSize=17;" vertex="1" parent="1">
          <mxGeometry x="620.9" y="870" width="148" height="50" as="geometry" />
        </mxCell>
        <mxCell id="ZolsTQ2NhSKeROi4H5Do-56" value="CONTINUEOUS&lt;br style=&quot;font-size: 17px;&quot;&gt;DEPLOYMENT" style="text;html=1;strokeColor=none;fillColor=none;align=center;verticalAlign=middle;whiteSpace=wrap;rounded=0;fontStyle=1;fontSize=17;" vertex="1" parent="1">
          <mxGeometry x="835.99" y="870" width="148" height="50" as="geometry" />
        </mxCell>
        <mxCell id="ZolsTQ2NhSKeROi4H5Do-63" value="" style="shape=image;verticalLabelPosition=bottom;labelBackgroundColor=default;verticalAlign=top;aspect=fixed;imageAspect=0;image=https://kubesphere.io/images/devops/dev-ops.png;" vertex="1" parent="1">
          <mxGeometry x="80" y="80" width="1040" height="667.33" as="geometry" />
        </mxCell>
      </root>
    </mxGraphModel>
  </diagram>
</mxfile>
